<svg width="15" height="17" viewBox="0 0 15 17" fill="none" xmlns="http://www.w3.org/2000/svg">
<path d="M14.6284 10.0153H12.2278V7.09488H14.6284C14.8338 7.09488 14.9997 6.89516 14.9997 6.64795C14.9997 6.40073 14.8338 6.20101 14.6284 6.20101H12.2278V0.448059C12.2278 0.200846 12.0619 0.00112337 11.8566 0.00112337C11.6512 0.00112337 11.4853 0.200846 11.4853 0.448059V6.20101H6.88612L3.75457 0.209217C3.66639 0.040218 3.49583 -0.0379958 3.33689 0.0178712C3.17795 0.0737381 3.06887 0.248322 3.06887 0.448038V6.20099H0.371283C0.165916 6.20099 -9.77155e-08 6.40071 -9.77155e-08 6.64792C-9.77155e-08 6.89514 0.165916 7.09486 0.371283 7.09486H3.06887V10.0153H0.371283C0.165916 10.0153 -9.77155e-08 10.215 -9.77155e-08 10.4623C-9.77155e-08 10.7095 0.165916 10.9092 0.371283 10.9092H3.06887V16.5517C3.06887 16.7989 3.23479 16.9986 3.44016 16.9986C3.64552 16.9986 3.81144 16.7989 3.81144 16.5517V10.9092H8.46881L11.5424 16.7905C11.6121 16.9232 11.7316 17 11.8569 17C11.8917 17 11.9253 16.9944 11.9601 16.9832C12.1191 16.9274 12.2282 16.7528 12.2282 16.5531V10.9092H14.6287C14.8341 10.9092 15 10.7095 15 10.4622C15 10.215 14.8341 10.0153 14.6287 10.0153L14.6284 10.0153ZM11.4853 7.09488V10.0153H8.87934L7.35361 7.09488H11.4853ZM3.8113 1.99839L6.00766 6.20101H3.8113V1.99839ZM3.8113 10.0153V7.09488H6.47527L8.00101 10.0153H3.8113ZM11.4853 15.0013L9.34576 10.9092H11.4853V15.0013Z" fill="white"/>
</svg>
