<svg width="29" height="29" viewBox="0 0 29 29" fill="none" xmlns="http://www.w3.org/2000/svg">
<path d="M11.2778 3.22217H4.83334C3.94355 3.22217 3.22223 3.94349 3.22223 4.83328V11.2777C3.22223 12.1675 3.94355 12.8888 4.83334 12.8888H11.2778C12.1676 12.8888 12.8889 12.1675 12.8889 11.2777V4.83328C12.8889 3.94349 12.1676 3.22217 11.2778 3.22217Z" fill="white"/>
<path d="M24.1666 3.22217H17.7222C16.8324 3.22217 16.1111 3.94349 16.1111 4.83328V11.2777C16.1111 12.1675 16.8324 12.8888 17.7222 12.8888H24.1666C25.0564 12.8888 25.7777 12.1675 25.7777 11.2777V4.83328C25.7777 3.94349 25.0564 3.22217 24.1666 3.22217Z" fill="white"/>
<path d="M11.2778 16.1111H4.83334C3.94355 16.1111 3.22223 16.8324 3.22223 17.7222V24.1666C3.22223 25.0564 3.94355 25.7778 4.83334 25.7778H11.2778C12.1676 25.7778 12.8889 25.0564 12.8889 24.1666V17.7222C12.8889 16.8324 12.1676 16.1111 11.2778 16.1111Z" fill="white"/>
<path d="M24.1666 16.1111H17.7222C16.8324 16.1111 16.1111 16.8324 16.1111 17.7222V24.1666C16.1111 25.0564 16.8324 25.7778 17.7222 25.7778H24.1666C25.0564 25.7778 25.7777 25.0564 25.7777 24.1666V17.7222C25.7777 16.8324 25.0564 16.1111 24.1666 16.1111Z" fill="white"/>
</svg>
