<svg width="26" height="27" viewBox="0 0 26 27" fill="none" xmlns="http://www.w3.org/2000/svg">
<path d="M21.1769 18.3334C20.6343 18.3354 20.0978 18.4471 19.5995 18.6617C19.1011 18.8762 18.6513 19.1893 18.2769 19.582L8.45719 14.6681C8.69874 13.9356 8.69874 13.145 8.45719 12.4125L18.293 7.41003C18.9975 8.15246 19.9529 8.60641 20.9735 8.68366C21.9941 8.76091 23.0069 8.45594 23.8152 7.82803C24.6234 7.20011 25.1693 6.29411 25.3468 5.28612C25.5242 4.27813 25.3206 3.24017 24.7754 2.37397C24.2302 1.50777 23.3824 0.875223 22.3968 0.599274C21.4112 0.323324 20.3582 0.423687 19.4425 0.880854C18.5268 1.33802 17.8138 2.11933 17.442 3.07293C17.0703 4.02652 17.0664 5.08427 17.4311 6.04059L7.69191 10.9948C7.16592 10.3515 6.45385 9.88662 5.6533 9.66392C4.85275 9.44121 4.00292 9.47156 3.2203 9.75079C2.43767 10.03 1.76056 10.5445 1.28179 11.2236C0.803021 11.9028 0.546021 12.7134 0.546021 13.5443C0.546021 14.3753 0.803021 15.1859 1.28179 15.865C1.76056 16.5442 2.43767 17.0587 3.2203 17.3379C4.00292 17.6171 4.85275 17.6475 5.6533 17.4248C6.45385 17.2021 7.16592 16.7372 7.69191 16.0939L17.4069 20.9836C17.2428 21.4244 17.1582 21.8908 17.1572 22.3611C17.1572 23.1578 17.3934 23.9365 17.836 24.5989C18.2786 25.2612 18.9076 25.7775 19.6436 26.0823C20.3796 26.3872 21.1894 26.4669 21.9707 26.3115C22.7521 26.1561 23.4697 25.7725 24.033 25.2092C24.5963 24.6459 24.9799 23.9282 25.1353 23.1469C25.2908 22.3656 25.211 21.5558 24.9061 20.8198C24.6013 20.0838 24.085 19.4547 23.4227 19.0122C22.7603 18.5696 21.9816 18.3334 21.185 18.3334H21.1769Z" fill="white"/>
</svg>
