<svg width="18" height="23" viewBox="0 0 18 23" fill="none" xmlns="http://www.w3.org/2000/svg">
<path d="M10.6945 14.7222C10.6945 14.5085 10.7793 14.3036 10.9304 14.1526C11.0815 14.0015 11.2864 13.9166 11.5 13.9166H17.9445V1.83328C17.9445 1.40599 17.7747 0.996193 17.4726 0.694051C17.1704 0.391909 16.7606 0.222168 16.3333 0.222168H5.7564L0.222229 5.74828V21.1666C0.222229 21.5939 0.391971 22.0037 0.694112 22.3058C0.996254 22.608 1.40605 22.7777 1.83334 22.7777H16.3333C16.7606 22.7777 17.1704 22.608 17.4726 22.3058C17.7747 22.0037 17.9445 21.5939 17.9445 21.1666V15.5277H11.5C11.2864 15.5277 11.0815 15.4429 10.9304 15.2918C10.7793 15.1407 10.6945 14.9358 10.6945 14.7222ZM6.66667 6.66661H1.83334V6.40884L6.41695 1.83328H6.66667V6.66661Z" fill="white"/>
</svg>
